<svg xmlns="http://www.w3.org/2000/svg" xmlns:xlink="http://www.w3.org/1999/xlink" width="500" zoomAndPan="magnify" viewBox="0 0 375 374.999991" height="500" preserveAspectRatio="xMidYMid meet" version="1.0"><defs><g/><clipPath id="e011f261ad"><path d="M 96.234375 120.570312 L 255.117188 120.570312 L 255.117188 279.570312 L 96.234375 279.570312 Z M 96.234375 120.570312 " clip-rule="nonzero"/></clipPath><clipPath id="dfa1d8ac40"><path d="M 96.234375 198.191406 L 255 198.191406 L 255 276.191406 L 96.234375 276.191406 Z M 96.234375 198.191406 " clip-rule="nonzero"/></clipPath><clipPath id="3235d61f42"><path d="M 209 201 L 218 201 L 218 209.746094 L 209 209.746094 Z M 209 201 " clip-rule="nonzero"/></clipPath><clipPath id="7bb841d82f"><path d="M 212 149.746094 L 215 149.746094 L 215 158 L 212 158 Z M 212 149.746094 " clip-rule="nonzero"/></clipPath><clipPath id="6515f4d182"><path d="M 232 174 L 239.808594 174 L 239.808594 177 L 232 177 Z M 232 174 " clip-rule="nonzero"/></clipPath><clipPath id="582ef49931"><path d="M 187.308594 174 L 195 174 L 195 177 L 187.308594 177 Z M 187.308594 174 " clip-rule="nonzero"/></clipPath></defs><rect x="-37.5" width="450" fill="#ffffff" y="-37.499999" height="449.999989" fill-opacity="1"/><rect x="-37.5" width="450" fill="#fbfbfb" y="-37.499999" height="449.999989" fill-opacity="1"/><g clip-path="url(#e011f261ad)"><path fill="#3b4a6b" d="M 255.117188 120.570312 C 167.367188 120.570312 96.234375 191.707031 96.234375 279.453125 L 255.117188 279.453125 Z M 255.117188 120.570312 " fill-opacity="1" fill-rule="nonzero"/></g><g clip-path="url(#dfa1d8ac40)"><path fill="#ffffff" d="M 178.878906 264.402344 L 184.164062 270.0625 L 252.417969 270.644531 C 251.042969 265.527344 249.085938 260.78125 246.214844 256.578125 C 218.957031 252.292969 190.699219 245.839844 178.878906 264.402344 Z M 187.703125 267.523438 C 197.273438 260.449219 208.59375 261.074219 220.914062 266.066406 C 208.761719 264.195312 197.441406 264.113281 187.703125 267.523438 Z M 217.667969 257.621094 C 226.90625 257.660156 235.976562 258.824219 244.925781 261.199219 C 235.8125 259.742188 226.824219 258.703125 217.667969 257.621094 Z M 188.328125 258.949219 C 196.277344 253.957031 208.511719 252.957031 222.328125 255.703125 C 209.261719 254.375 197.441406 254.789062 188.328125 258.949219 Z M 232.398438 242.761719 L 245.800781 254.957031 C 218.875 250.667969 190.492188 244.800781 178.421875 263.902344 L 177.464844 263.445312 C 183.125 234.1875 210.800781 240.804688 232.398438 242.71875 Z M 111.085938 257.035156 L 109.628906 257.246094 L 108.296875 258.367188 L 105.382812 258.492188 C 102.347656 261.199219 100.597656 266.191406 98.808594 270.9375 L 165.355469 269.894531 L 174.34375 263.277344 C 169.640625 253.167969 159.652344 249.296875 149.164062 249.421875 C 136.722656 249.546875 123.195312 254.789062 112.417969 255.207031 L 111.085938 256.996094 Z M 167.808594 264.734375 C 154.699219 259.617188 139.300781 262.570312 122.90625 262.40625 C 137.96875 261.574219 153.160156 255.371094 167.808594 264.734375 Z M 112.667969 253.664062 L 123.070312 245.34375 C 131.0625 245.34375 163.648438 237.058594 172.636719 259.617188 C 167.601562 251.128906 158.320312 247.839844 148.625 247.921875 C 136.472656 248.046875 123.28125 253.082031 112.625 253.664062 Z M 123.40625 229.984375 C 137.722656 232.109375 154.535156 235.3125 165.644531 245.507812 C 171.054688 251.128906 174.550781 256.996094 175.21875 263.277344 L 174.59375 263.277344 C 168.019531 237.933594 135.222656 239.847656 116.746094 237.683594 Z M 253.832031 272.558594 C 254.414062 272.558594 254.871094 273.058594 254.871094 273.640625 C 254.871094 274.222656 254.371094 274.683594 253.789062 274.683594 L 185.164062 273.851562 C 184.707031 274.597656 183.832031 275.179688 182.5 275.640625 C 180.835938 276.179688 178.464844 276.472656 175.882812 276.472656 C 171.429688 276.472656 166.519531 275.597656 164.273438 273.683594 L 97.519531 274.640625 C 96.9375 274.640625 96.480469 274.183594 96.480469 273.601562 C 96.480469 273.015625 96.9375 272.558594 97.519531 272.519531 L 164.6875 271.5625 C 164.980469 271.5625 165.269531 271.6875 165.480469 271.894531 C 167.476562 273.976562 176.757812 275.304688 181.875 273.640625 C 183.042969 273.265625 183.417969 272.851562 183.417969 272.683594 C 183.5 272.144531 183.957031 271.769531 184.457031 271.769531 L 253.832031 272.644531 Z M 175.925781 263.320312 C 172.261719 241.847656 151.953125 229.570312 128.316406 217.582031 L 151.621094 198.191406 C 163.855469 207.386719 174.59375 219.707031 175.925781 240.679688 Z M 226.613281 228.445312 L 234.5625 240.472656 C 208.886719 237.476562 182.25 232.898438 176.964844 263.113281 L 176.964844 240.515625 C 185.789062 225.492188 203.226562 223.328125 226.613281 228.445312 Z M 226.613281 228.445312 " fill-opacity="1" fill-rule="nonzero"/></g><path fill="#ffffff" d="M 224.734375 162.78125 C 224.734375 162.78125 223.824219 162.042969 223.003906 161.5 C 219.589844 159.25 216.402344 158.480469 213.558594 158.535156 C 210.722656 158.480469 207.53125 159.25 204.121094 161.5 C 203.304688 162.042969 202.390625 162.78125 202.390625 162.78125 C 190.308594 173.316406 198.457031 186.140625 203.804688 191.832031 C 204.054688 192.097656 204.292969 192.347656 204.519531 192.578125 C 205.757812 193.984375 208.257812 197.359375 209.265625 202.632812 L 217.855469 202.632812 C 218.863281 197.359375 221.363281 193.984375 222.601562 192.578125 C 222.832031 192.347656 223.074219 192.097656 223.320312 191.832031 C 228.667969 186.140625 236.8125 173.316406 224.734375 162.78125 " fill-opacity="1" fill-rule="nonzero"/><path stroke-linecap="round" transform="matrix(0.0303644, 0, 0, -0.0303644, 149.020586, 244.195765)" fill="none" stroke-linejoin="round" d="M 2015.7167 1990.551747 C 2018.418263 2003.159038 2031.282845 2033.004869 2041.445865 2034.291327 C 2055.339614 2036.349661 2063.444301 2027.859036 2075.151072 2021.298099 C 2082.869821 2016.924141 2088.015654 2010.620496 2097.921383 2010.749141 C 2118.890652 2011.006433 2120.948985 2025.414765 2126.866693 2032.747577 C 2147.835963 2058.348097 2161.343774 2021.040807 2179.611482 2013.322058 C 2188.745335 2009.334037 2199.937522 2019.239766 2206.884396 2025.157474 C 2213.316688 2030.81789 2221.292729 2034.548619 2229.526062 2033.004869 C 2242.390644 2030.560598 2253.454185 2016.409558 2263.102622 2007.275704 C 2269.792205 2000.972059 2276.610434 1980.002789 2293.463037 1981.546539 " stroke="#e8e8e8" stroke-width="30" stroke-opacity="1" stroke-miterlimit="10"/><path fill="#3b4a6b" d="M 212.476562 202.003906 L 209.617188 202.226562 L 208.285156 184.863281 L 211.140625 184.644531 L 212.476562 202.003906 " fill-opacity="1" fill-rule="nonzero"/><path fill="#3b4a6b" d="M 209.363281 180.207031 L 208.304688 185.105469 L 209.730469 184.996094 L 211.160156 184.886719 L 209.363281 180.207031 " fill-opacity="1" fill-rule="nonzero"/><path fill="#ffffff" d="M 211.207031 185.5 L 208.347656 185.71875 L 208.320312 185.375 L 211.179688 185.160156 L 211.207031 185.5 " fill-opacity="1" fill-rule="nonzero"/><path fill="#3b4a6b" d="M 216.773438 202.226562 L 213.941406 201.796875 L 216.539062 184.582031 L 219.371094 185.007812 L 216.773438 202.226562 " fill-opacity="1" fill-rule="nonzero"/><path fill="#3b4a6b" d="M 218.636719 180.289062 L 216.503906 184.820312 L 217.917969 185.035156 L 219.335938 185.25 L 218.636719 180.289062 " fill-opacity="1" fill-rule="nonzero"/><path fill="#ffffff" d="M 219.242188 185.855469 L 216.410156 185.429688 L 216.464844 185.089844 L 219.292969 185.515625 L 219.242188 185.855469 " fill-opacity="1" fill-rule="nonzero"/><g clip-path="url(#3235d61f42)"><path fill="#ffffff" d="M 217.464844 205.546875 C 217.464844 207.742188 215.71875 209.515625 213.558594 209.515625 C 211.40625 209.515625 209.660156 207.742188 209.660156 205.546875 C 209.660156 203.355469 211.40625 201.578125 213.558594 201.578125 C 215.71875 201.578125 217.464844 203.355469 217.464844 205.546875 " fill-opacity="1" fill-rule="nonzero"/></g><path fill="#ffffff" d="M 220.375 203.554688 C 220.375 204.15625 219.886719 204.644531 219.28125 204.644531 L 207.984375 204.644531 C 207.382812 204.644531 206.890625 204.15625 206.890625 203.554688 C 206.890625 202.949219 207.382812 202.460938 207.984375 202.460938 L 219.28125 202.460938 C 219.886719 202.460938 220.375 202.949219 220.375 203.554688 " fill-opacity="1" fill-rule="nonzero"/><path fill="#ffffff" d="M 220.375 201.523438 C 220.375 202.121094 219.886719 202.613281 219.28125 202.613281 L 207.984375 202.613281 C 207.382812 202.613281 206.890625 202.121094 206.890625 201.523438 C 206.890625 200.914062 207.382812 200.425781 207.984375 200.425781 L 219.28125 200.425781 C 219.886719 200.425781 220.375 200.914062 220.375 201.523438 " fill-opacity="1" fill-rule="nonzero"/><path fill="#ffffff" d="M 220.375 205.546875 C 220.375 206.152344 219.886719 206.640625 219.28125 206.640625 L 207.984375 206.640625 C 207.382812 206.640625 206.890625 206.152344 206.890625 205.546875 C 206.890625 204.945312 207.382812 204.453125 207.984375 204.453125 L 219.28125 204.453125 C 219.886719 204.453125 220.375 204.945312 220.375 205.546875 " fill-opacity="1" fill-rule="nonzero"/><g clip-path="url(#7bb841d82f)"><path fill="#ffffff" d="M 214.726562 157.1875 L 212.398438 157.1875 L 212.398438 149.765625 L 214.726562 149.765625 L 214.726562 157.1875 " fill-opacity="1" fill-rule="nonzero"/></g><path fill="#ffffff" d="M 225.757812 190.492188 L 227.402344 188.847656 L 232.648438 194.09375 L 231.003906 195.742188 L 225.757812 190.492188 " fill-opacity="1" fill-rule="nonzero"/><path fill="#ffffff" d="M 227.402344 162.335938 L 225.757812 160.691406 L 231.003906 155.445312 L 232.648438 157.089844 L 227.402344 162.335938 " fill-opacity="1" fill-rule="nonzero"/><g clip-path="url(#6515f4d182)"><path fill="#ffffff" d="M 232.414062 176.757812 L 232.414062 174.425781 L 239.832031 174.425781 L 239.832031 176.757812 L 232.414062 176.757812 " fill-opacity="1" fill-rule="nonzero"/></g><path fill="#ffffff" d="M 201.394531 190.492188 L 199.746094 188.847656 L 194.5 194.09375 L 196.144531 195.742188 L 201.394531 190.492188 " fill-opacity="1" fill-rule="nonzero"/><path fill="#ffffff" d="M 199.746094 162.335938 L 201.394531 160.691406 L 196.144531 155.445312 L 194.5 157.089844 L 199.746094 162.335938 " fill-opacity="1" fill-rule="nonzero"/><g clip-path="url(#582ef49931)"><path fill="#ffffff" d="M 194.738281 176.757812 L 194.738281 174.425781 L 187.320312 174.425781 L 187.320312 176.757812 L 194.738281 176.757812 " fill-opacity="1" fill-rule="nonzero"/></g><g fill="#3b4a6b" fill-opacity="1"><g transform="translate(288.005436, 279.458478)"><g><path d="M -15.421875 -27.125 L 0.109375 -27.125 L 0.109375 -23.171875 L -2.4375 -22.9375 C -1.40625 -21.832031 -0.675781 -20.671875 -0.25 -19.453125 C 0.175781 -18.234375 0.390625 -16.828125 0.390625 -15.234375 C 0.390625 -12.804688 -0.15625 -10.609375 -1.25 -8.640625 C -2.351562 -6.679688 -3.941406 -5.125 -6.015625 -3.96875 C -8.097656 -2.820312 -10.613281 -2.25 -13.5625 -2.25 C -15.570312 -2.25 -17.429688 -2.597656 -19.140625 -3.296875 C -20.847656 -3.992188 -22.328125 -4.96875 -23.578125 -6.21875 C -24.828125 -7.46875 -25.796875 -8.910156 -26.484375 -10.546875 C -27.171875 -12.191406 -27.515625 -13.945312 -27.515625 -15.8125 C -27.515625 -17.695312 -27.15625 -19.457031 -26.4375 -21.09375 C -25.726562 -22.738281 -24.753906 -24.164062 -23.515625 -25.375 L -20.34375 -22.203125 C -21.164062 -21.398438 -21.8125 -20.441406 -22.28125 -19.328125 C -22.75 -18.222656 -22.984375 -17.050781 -22.984375 -15.8125 C -22.984375 -14.15625 -22.609375 -12.640625 -21.859375 -11.265625 C -21.109375 -9.898438 -20.035156 -8.8125 -18.640625 -8 C -17.242188 -7.1875 -15.550781 -6.78125 -13.5625 -6.78125 C -11.363281 -6.78125 -9.566406 -7.1875 -8.171875 -8 C -6.773438 -8.8125 -5.753906 -9.898438 -5.109375 -11.265625 C -4.460938 -12.640625 -4.140625 -14.15625 -4.140625 -15.8125 C -4.140625 -17.175781 -4.410156 -18.4375 -4.953125 -19.59375 C -5.503906 -20.757812 -6.253906 -21.757812 -7.203125 -22.59375 L -11.125 -22.59375 L -11.125 -18.0625 L -15.421875 -18.0625 Z M -15.421875 -27.125 "/></g></g></g><g fill="#3b4a6b" fill-opacity="1"><g transform="translate(288.005436, 249.510767)"><g><path d="M -11.3125 -11.234375 L -11.3125 -7.5625 L 0 -7.5625 L 0 -3.015625 L -27.125 -3.015625 L -27.125 -12.046875 C -27.125 -12.046875 -27.109375 -12.265625 -27.078125 -12.703125 C -27.054688 -13.148438 -26.972656 -13.710938 -26.828125 -14.390625 C -26.691406 -15.078125 -26.460938 -15.804688 -26.140625 -16.578125 C -25.816406 -17.359375 -25.363281 -18.085938 -24.78125 -18.765625 C -24.195312 -19.453125 -23.453125 -20.015625 -22.546875 -20.453125 C -21.648438 -20.898438 -20.539062 -21.125 -19.21875 -21.125 C -17.769531 -21.125 -16.566406 -20.859375 -15.609375 -20.328125 C -14.660156 -19.796875 -13.898438 -19.128906 -13.328125 -18.328125 C -12.765625 -17.523438 -12.328125 -16.710938 -12.015625 -15.890625 L 0 -21.421875 L 0 -16.4375 Z M -15.8125 -7.5625 L -15.8125 -12.046875 C -15.8125 -12.046875 -15.828125 -12.269531 -15.859375 -12.71875 C -15.898438 -13.175781 -16.023438 -13.707031 -16.234375 -14.3125 C -16.441406 -14.925781 -16.773438 -15.457031 -17.234375 -15.90625 C -17.703125 -16.351562 -18.363281 -16.578125 -19.21875 -16.578125 C -20.070312 -16.578125 -20.722656 -16.351562 -21.171875 -15.90625 C -21.628906 -15.457031 -21.957031 -14.925781 -22.15625 -14.3125 C -22.363281 -13.707031 -22.488281 -13.175781 -22.53125 -12.71875 C -22.570312 -12.269531 -22.59375 -12.046875 -22.59375 -12.046875 L -22.59375 -7.5625 Z M -15.8125 -7.5625 "/></g></g></g><g fill="#3b4a6b" fill-opacity="1"><g transform="translate(288.005436, 226.304199)"><g><path d="M -27.75 -15.390625 C -27.75 -17.609375 -27.351562 -19.550781 -26.5625 -21.21875 C -25.769531 -22.882812 -24.710938 -24.269531 -23.390625 -25.375 C -22.078125 -26.488281 -20.59375 -27.328125 -18.9375 -27.890625 C -17.289062 -28.460938 -15.585938 -28.75 -13.828125 -28.75 C -12.078125 -28.75 -10.375 -28.472656 -8.71875 -27.921875 C -7.0625 -27.367188 -5.570312 -26.535156 -4.25 -25.421875 C -2.9375 -24.304688 -1.882812 -22.910156 -1.09375 -21.234375 C -0.3125 -19.554688 0.078125 -17.609375 0.078125 -15.390625 C 0.078125 -13.140625 -0.3125 -11.179688 -1.09375 -9.515625 C -1.882812 -7.847656 -2.9375 -6.453125 -4.25 -5.328125 C -5.570312 -4.203125 -7.0625 -3.359375 -8.71875 -2.796875 C -10.375 -2.242188 -12.078125 -1.96875 -13.828125 -1.96875 C -15.585938 -1.96875 -17.289062 -2.242188 -18.9375 -2.796875 C -20.59375 -3.359375 -22.078125 -4.203125 -23.390625 -5.328125 C -24.710938 -6.453125 -25.769531 -7.851562 -26.5625 -9.53125 C -27.351562 -11.207031 -27.75 -13.160156 -27.75 -15.390625 Z M -4.296875 -15.390625 C -4.296875 -17.066406 -4.640625 -18.503906 -5.328125 -19.703125 C -6.015625 -20.898438 -6.925781 -21.851562 -8.0625 -22.5625 C -9.195312 -23.28125 -10.441406 -23.757812 -11.796875 -24 C -13.148438 -24.25 -14.5 -24.25 -15.84375 -24 C -17.1875 -23.757812 -18.425781 -23.28125 -19.5625 -22.5625 C -20.707031 -21.851562 -21.617188 -20.898438 -22.296875 -19.703125 C -22.984375 -18.503906 -23.328125 -17.066406 -23.328125 -15.390625 C -23.328125 -13.703125 -22.984375 -12.265625 -22.296875 -11.078125 C -21.617188 -9.890625 -20.707031 -8.929688 -19.5625 -8.203125 C -18.425781 -7.484375 -17.1875 -7 -15.84375 -6.75 C -14.5 -6.507812 -13.148438 -6.507812 -11.796875 -6.75 C -10.441406 -7 -9.195312 -7.476562 -8.0625 -8.1875 C -6.925781 -8.90625 -6.015625 -9.863281 -5.328125 -11.0625 C -4.640625 -12.257812 -4.296875 -13.703125 -4.296875 -15.390625 Z M -4.296875 -15.390625 "/></g></g></g><g fill="#3b4a6b" fill-opacity="1"><g transform="translate(288.005436, 195.426679)"><g><path d="M 0.390625 -13.21875 C 0.390625 -11.351562 0.0195312 -9.648438 -0.71875 -8.109375 C -1.457031 -6.578125 -2.503906 -5.351562 -3.859375 -4.4375 C -5.210938 -3.519531 -6.820312 -3.0625 -8.6875 -3.0625 L -27.125 -3.0625 L -27.125 -7.59375 L -8.6875 -7.59375 C -7.101562 -7.71875 -5.945312 -8.328125 -5.21875 -9.421875 C -4.5 -10.523438 -4.140625 -11.789062 -4.140625 -13.21875 C -4.140625 -14.164062 -4.304688 -15.066406 -4.640625 -15.921875 C -4.984375 -16.773438 -5.488281 -17.476562 -6.15625 -18.03125 C -6.832031 -18.59375 -7.675781 -18.875 -8.6875 -18.875 L -27.125 -18.875 L -27.125 -23.40625 L -8.6875 -23.40625 C -6.769531 -23.40625 -5.132812 -22.957031 -3.78125 -22.0625 C -2.425781 -21.175781 -1.390625 -19.960938 -0.671875 -18.421875 C 0.0351562 -16.890625 0.390625 -15.15625 0.390625 -13.21875 Z M 0.390625 -13.21875 "/></g></g></g><g fill="#3b4a6b" fill-opacity="1"><g transform="translate(288.005436, 168.965767)"><g><path d="M -27.125 -12.125 C -27.125 -12.125 -27.109375 -12.34375 -27.078125 -12.78125 C -27.054688 -13.226562 -26.972656 -13.789062 -26.828125 -14.46875 C -26.691406 -15.15625 -26.460938 -15.882812 -26.140625 -16.65625 C -25.816406 -17.4375 -25.363281 -18.164062 -24.78125 -18.84375 C -24.195312 -19.53125 -23.445312 -20.09375 -22.53125 -20.53125 C -21.613281 -20.976562 -20.5 -21.203125 -19.1875 -21.203125 C -17.863281 -21.203125 -16.742188 -20.976562 -15.828125 -20.53125 C -14.910156 -20.09375 -14.160156 -19.53125 -13.578125 -18.84375 C -12.992188 -18.164062 -12.539062 -17.4375 -12.21875 -16.65625 C -11.894531 -15.882812 -11.660156 -15.15625 -11.515625 -14.46875 C -11.378906 -13.789062 -11.296875 -13.226562 -11.265625 -12.78125 C -11.242188 -12.34375 -11.234375 -12.125 -11.234375 -12.125 L -11.234375 -7.59375 L 0.078125 -7.59375 L 0.078125 -3.0625 L -27.125 -3.0625 Z M -15.765625 -12.125 C -15.765625 -12.125 -15.785156 -12.347656 -15.828125 -12.796875 C -15.867188 -13.253906 -15.988281 -13.785156 -16.1875 -14.390625 C -16.394531 -15.003906 -16.734375 -15.535156 -17.203125 -15.984375 C -17.671875 -16.429688 -18.332031 -16.65625 -19.1875 -16.65625 C -20.03125 -16.65625 -20.6875 -16.429688 -21.15625 -15.984375 C -21.625 -15.535156 -21.957031 -15.003906 -22.15625 -14.390625 C -22.363281 -13.785156 -22.488281 -13.253906 -22.53125 -12.796875 C -22.570312 -12.347656 -22.59375 -12.125 -22.59375 -12.125 L -22.59375 -7.59375 L -15.765625 -7.59375 Z M -15.765625 -12.125 "/></g></g></g><g fill="#3b4a6b" fill-opacity="1"><g transform="translate(288.005436, 146.495306)"><g/></g></g><g fill="#3b4a6b" fill-opacity="1"><g transform="translate(288.005436, 133.129248)"><g><path d="M 0 -9.875 L 0 -5.34375 L -21.96875 -5.34375 L -20.5 -1.3125 L -23.75 0.1875 L -27.125 -6.046875 L -27.125 -9.875 Z M 0 -9.875 "/></g></g></g><g fill="#3b4a6b" fill-opacity="1"><g transform="translate(113.86581, 304.213749)"><g><path d="M 3.71875 0 C 3.414062 0 3.0625 0.03125 2.65625 0.09375 C 2.25 0.15625 1.863281 0.1875 1.5 0.1875 C 1.15625 0.1875 0.867188 0.132812 0.640625 0.03125 C 0.410156 -0.0703125 0.296875 -0.269531 0.296875 -0.5625 C 0.296875 -0.789062 0.34375 -0.957031 0.4375 -1.0625 C 0.539062 -1.175781 0.660156 -1.316406 0.796875 -1.484375 C 0.941406 -1.648438 1.0625 -1.910156 1.15625 -2.265625 C 1.257812 -2.628906 1.3125 -3.164062 1.3125 -3.875 L 1.3125 -11.125 C 1.3125 -11.832031 1.257812 -12.363281 1.15625 -12.71875 C 1.0625 -13.082031 0.941406 -13.347656 0.796875 -13.515625 C 0.660156 -13.679688 0.539062 -13.816406 0.4375 -13.921875 C 0.34375 -14.035156 0.296875 -14.207031 0.296875 -14.4375 C 0.296875 -14.726562 0.410156 -14.925781 0.640625 -15.03125 C 0.867188 -15.132812 1.15625 -15.1875 1.5 -15.1875 C 1.863281 -15.1875 2.25 -15.15625 2.65625 -15.09375 C 3.0625 -15.03125 3.414062 -15 3.71875 -15 C 4.34375 -15 4.875 -15.015625 5.3125 -15.046875 C 5.75 -15.078125 6.203125 -15.109375 6.671875 -15.140625 C 7.140625 -15.171875 7.707031 -15.1875 8.375 -15.1875 C 9.570312 -15.1875 10.566406 -14.894531 11.359375 -14.3125 C 12.148438 -13.726562 12.546875 -12.894531 12.546875 -11.8125 C 12.546875 -11.195312 12.398438 -10.679688 12.109375 -10.265625 C 11.816406 -9.859375 11.457031 -9.539062 11.03125 -9.3125 C 10.613281 -9.082031 10.191406 -8.90625 9.765625 -8.78125 C 9.335938 -8.664062 8.976562 -8.578125 8.6875 -8.515625 C 8.394531 -8.460938 8.25 -8.394531 8.25 -8.3125 C 8.25 -8.25 8.300781 -8.203125 8.40625 -8.171875 C 8.519531 -8.140625 8.878906 -8.164062 9.484375 -8.25 C 10.398438 -8.382812 11.1875 -8.273438 11.84375 -7.921875 C 12.507812 -7.578125 13.019531 -7.082031 13.375 -6.4375 C 13.738281 -5.800781 13.921875 -5.101562 13.921875 -4.34375 C 13.921875 -2.769531 13.394531 -1.617188 12.34375 -0.890625 C 11.289062 -0.171875 9.816406 0.1875 7.921875 0.1875 C 7.316406 0.1875 6.609375 0.15625 5.796875 0.09375 C 4.992188 0.03125 4.300781 0 3.71875 0 Z M 6.15625 -6.625 L 6.15625 -2.1875 C 6.15625 -1.945312 6.226562 -1.769531 6.375 -1.65625 C 6.519531 -1.550781 6.695312 -1.5 6.90625 -1.5 C 7.601562 -1.5 8.109375 -1.722656 8.421875 -2.171875 C 8.742188 -2.617188 8.90625 -3.382812 8.90625 -4.46875 C 8.90625 -5.25 8.742188 -5.914062 8.421875 -6.46875 C 8.109375 -7.03125 7.601562 -7.3125 6.90625 -7.3125 C 6.695312 -7.3125 6.519531 -7.253906 6.375 -7.140625 C 6.226562 -7.035156 6.15625 -6.863281 6.15625 -6.625 Z M 6.15625 -9.75 C 6.15625 -9.488281 6.226562 -9.3125 6.375 -9.21875 C 6.519531 -9.132812 6.695312 -9.09375 6.90625 -9.09375 C 7.195312 -9.09375 7.460938 -9.285156 7.703125 -9.671875 C 7.941406 -10.066406 8.0625 -10.59375 8.0625 -11.25 C 8.0625 -12.050781 7.941406 -12.601562 7.703125 -12.90625 C 7.460938 -13.21875 7.195312 -13.375 6.90625 -13.375 C 6.40625 -13.375 6.15625 -13.144531 6.15625 -12.6875 Z M 6.15625 -9.75 "/></g></g></g><g fill="#3b4a6b" fill-opacity="1"><g transform="translate(128.385798, 304.213749)"><g><path d="M 7.109375 0.1875 C 5.109375 0.1875 3.519531 -0.359375 2.34375 -1.453125 C 1.175781 -2.546875 0.59375 -4.0625 0.59375 -6 C 0.59375 -7.957031 1.175781 -9.476562 2.34375 -10.5625 C 3.519531 -11.644531 5.109375 -12.1875 7.109375 -12.1875 C 9.109375 -12.1875 10.691406 -11.644531 11.859375 -10.5625 C 13.035156 -9.476562 13.625 -7.957031 13.625 -6 C 13.625 -4.0625 13.035156 -2.546875 11.859375 -1.453125 C 10.691406 -0.359375 9.109375 0.1875 7.109375 0.1875 Z M 5.546875 -6 C 5.546875 -5.175781 5.585938 -4.421875 5.671875 -3.734375 C 5.765625 -3.046875 5.925781 -2.5 6.15625 -2.09375 C 6.394531 -1.695312 6.710938 -1.5 7.109375 -1.5 C 7.523438 -1.5 7.847656 -1.695312 8.078125 -2.09375 C 8.316406 -2.5 8.472656 -3.046875 8.546875 -3.734375 C 8.628906 -4.421875 8.671875 -5.175781 8.671875 -6 C 8.671875 -6.84375 8.628906 -7.601562 8.546875 -8.28125 C 8.472656 -8.957031 8.316406 -9.492188 8.078125 -9.890625 C 7.847656 -10.296875 7.523438 -10.5 7.109375 -10.5 C 6.710938 -10.5 6.394531 -10.296875 6.15625 -9.890625 C 5.925781 -9.492188 5.765625 -8.957031 5.671875 -8.28125 C 5.585938 -7.601562 5.546875 -6.84375 5.546875 -6 Z M 5.546875 -6 "/></g></g></g><g fill="#3b4a6b" fill-opacity="1"><g transform="translate(142.605779, 304.213749)"><g><path d="M 7.109375 0.1875 C 5.109375 0.1875 3.519531 -0.359375 2.34375 -1.453125 C 1.175781 -2.546875 0.59375 -4.0625 0.59375 -6 C 0.59375 -7.957031 1.175781 -9.476562 2.34375 -10.5625 C 3.519531 -11.644531 5.109375 -12.1875 7.109375 -12.1875 C 9.109375 -12.1875 10.691406 -11.644531 11.859375 -10.5625 C 13.035156 -9.476562 13.625 -7.957031 13.625 -6 C 13.625 -4.0625 13.035156 -2.546875 11.859375 -1.453125 C 10.691406 -0.359375 9.109375 0.1875 7.109375 0.1875 Z M 5.546875 -6 C 5.546875 -5.175781 5.585938 -4.421875 5.671875 -3.734375 C 5.765625 -3.046875 5.925781 -2.5 6.15625 -2.09375 C 6.394531 -1.695312 6.710938 -1.5 7.109375 -1.5 C 7.523438 -1.5 7.847656 -1.695312 8.078125 -2.09375 C 8.316406 -2.5 8.472656 -3.046875 8.546875 -3.734375 C 8.628906 -4.421875 8.671875 -5.175781 8.671875 -6 C 8.671875 -6.84375 8.628906 -7.601562 8.546875 -8.28125 C 8.472656 -8.957031 8.316406 -9.492188 8.078125 -9.890625 C 7.847656 -10.296875 7.523438 -10.5 7.109375 -10.5 C 6.710938 -10.5 6.394531 -10.296875 6.15625 -9.890625 C 5.925781 -9.492188 5.765625 -8.957031 5.671875 -8.28125 C 5.585938 -7.601562 5.546875 -6.84375 5.546875 -6 Z M 5.546875 -6 "/></g></g></g><g fill="#3b4a6b" fill-opacity="1"><g transform="translate(156.82576, 304.213749)"><g><path d="M 3.71875 0 C 3.414062 0 3.0625 0.03125 2.65625 0.09375 C 2.25 0.15625 1.863281 0.1875 1.5 0.1875 C 1.15625 0.1875 0.867188 0.132812 0.640625 0.03125 C 0.410156 -0.0703125 0.296875 -0.269531 0.296875 -0.5625 C 0.296875 -0.789062 0.34375 -0.957031 0.4375 -1.0625 C 0.539062 -1.175781 0.660156 -1.316406 0.796875 -1.484375 C 0.941406 -1.648438 1.0625 -1.910156 1.15625 -2.265625 C 1.257812 -2.628906 1.3125 -3.164062 1.3125 -3.875 C 1.3125 -4.550781 1.3125 -5.335938 1.3125 -6.234375 C 1.3125 -7.140625 1.316406 -8.035156 1.328125 -8.921875 C 1.335938 -9.816406 1.34375 -10.585938 1.34375 -11.234375 C 1.34375 -11.878906 1.34375 -12.296875 1.34375 -12.484375 C 1.34375 -13.023438 1.257812 -13.398438 1.09375 -13.609375 C 0.925781 -13.816406 0.753906 -13.976562 0.578125 -14.09375 C 0.410156 -14.21875 0.328125 -14.410156 0.328125 -14.671875 C 0.328125 -14.972656 0.425781 -15.175781 0.625 -15.28125 C 0.832031 -15.394531 1.117188 -15.488281 1.484375 -15.5625 C 1.859375 -15.644531 2.300781 -15.773438 2.8125 -15.953125 C 3.457031 -16.191406 3.898438 -16.40625 4.140625 -16.59375 C 4.378906 -16.789062 4.554688 -16.945312 4.671875 -17.0625 C 4.796875 -17.1875 4.988281 -17.25 5.25 -17.25 C 5.613281 -17.25 5.851562 -17.085938 5.96875 -16.765625 C 6.09375 -16.453125 6.15625 -16.070312 6.15625 -15.625 L 6.15625 -7.40625 C 6.207031 -7.34375 6.296875 -7.375 6.421875 -7.5 C 6.941406 -8.019531 7.320312 -8.4375 7.5625 -8.75 C 7.800781 -9.070312 7.945312 -9.332031 8 -9.53125 C 8.0625 -9.738281 8.09375 -9.929688 8.09375 -10.109375 C 8.09375 -10.328125 8.007812 -10.5 7.84375 -10.625 C 7.675781 -10.757812 7.59375 -10.957031 7.59375 -11.21875 C 7.59375 -11.394531 7.664062 -11.566406 7.8125 -11.734375 C 7.96875 -11.910156 8.15625 -12 8.375 -12 C 8.75 -12 9.0625 -11.96875 9.3125 -11.90625 C 9.5625 -11.84375 9.878906 -11.8125 10.265625 -11.8125 C 10.660156 -11.8125 11.003906 -11.84375 11.296875 -11.90625 C 11.585938 -11.96875 11.929688 -12 12.328125 -12 C 12.546875 -12 12.734375 -11.921875 12.890625 -11.765625 C 13.054688 -11.617188 13.140625 -11.4375 13.140625 -11.21875 C 13.140625 -10.800781 12.890625 -10.488281 12.390625 -10.28125 C 11.890625 -10.082031 11.320312 -9.84375 10.6875 -9.5625 C 10.28125 -9.382812 9.6875 -8.988281 8.90625 -8.375 C 8.707031 -8.207031 8.628906 -8.050781 8.671875 -7.90625 C 8.710938 -7.769531 8.863281 -7.703125 9.125 -7.703125 C 9.71875 -7.703125 10.210938 -7.523438 10.609375 -7.171875 C 11.015625 -6.828125 11.347656 -6.390625 11.609375 -5.859375 C 11.867188 -5.328125 12.085938 -4.785156 12.265625 -4.234375 C 12.453125 -3.691406 12.632812 -3.21875 12.8125 -2.8125 C 13.050781 -2.28125 13.28125 -1.890625 13.5 -1.640625 C 13.71875 -1.390625 13.894531 -1.195312 14.03125 -1.0625 C 14.175781 -0.9375 14.25 -0.769531 14.25 -0.5625 C 14.25 -0.0820312 13.867188 0.164062 13.109375 0.1875 C 12.671875 0.195312 12.34375 0.164062 12.125 0.09375 C 11.914062 0.03125 11.644531 0 11.3125 0 C 11.164062 0 10.921875 0.0078125 10.578125 0.03125 C 10.242188 0.0507812 9.96875 0.0820312 9.75 0.125 C 9.226562 0.21875 8.878906 0.140625 8.703125 -0.109375 C 8.523438 -0.359375 8.34375 -0.703125 8.15625 -1.140625 C 7.851562 -1.898438 7.566406 -2.691406 7.296875 -3.515625 C 7.035156 -4.347656 6.742188 -5.164062 6.421875 -5.96875 C 6.359375 -6.09375 6.269531 -6.113281 6.15625 -6.03125 L 6.15625 -3.875 C 6.15625 -3.164062 6.203125 -2.628906 6.296875 -2.265625 C 6.398438 -1.910156 6.519531 -1.648438 6.65625 -1.484375 C 6.800781 -1.316406 6.921875 -1.175781 7.015625 -1.0625 C 7.117188 -0.957031 7.171875 -0.789062 7.171875 -0.5625 C 7.171875 -0.269531 7.054688 -0.0703125 6.828125 0.03125 C 6.597656 0.132812 6.3125 0.1875 5.96875 0.1875 C 5.59375 0.1875 5.195312 0.15625 4.78125 0.09375 C 4.375 0.03125 4.019531 0 3.71875 0 Z M 3.71875 0 "/></g></g></g><g fill="#3b4a6b" fill-opacity="1"><g transform="translate(171.375743, 304.213749)"><g/></g><g transform="translate(175.875743, 304.213749)"><g><path d="M 0.8125 -2.96875 C 0.8125 -3.59375 0.769531 -4.128906 0.6875 -4.578125 C 0.601562 -5.023438 0.578125 -5.378906 0.609375 -5.640625 C 0.640625 -5.898438 0.835938 -6.03125 1.203125 -6.03125 C 1.441406 -6.03125 1.679688 -5.882812 1.921875 -5.59375 C 2.160156 -5.300781 2.429688 -4.941406 2.734375 -4.515625 C 3.046875 -4.085938 3.414062 -3.65625 3.84375 -3.21875 C 4.28125 -2.789062 4.796875 -2.429688 5.390625 -2.140625 C 5.992188 -1.847656 6.707031 -1.703125 7.53125 -1.703125 C 8.007812 -1.703125 8.40625 -1.785156 8.71875 -1.953125 C 9.03125 -2.128906 9.1875 -2.4375 9.1875 -2.875 C 9.1875 -3.28125 8.976562 -3.617188 8.5625 -3.890625 C 8.15625 -4.171875 7.628906 -4.445312 6.984375 -4.71875 C 6.347656 -4.988281 5.671875 -5.28125 4.953125 -5.59375 C 4.234375 -5.90625 3.550781 -6.28125 2.90625 -6.71875 C 2.269531 -7.15625 1.75 -7.695312 1.34375 -8.34375 C 0.945312 -9 0.75 -9.785156 0.75 -10.703125 C 0.75 -11.984375 1.21875 -13.050781 2.15625 -13.90625 C 3.09375 -14.757812 4.492188 -15.1875 6.359375 -15.1875 C 6.941406 -15.1875 7.414062 -15.15625 7.78125 -15.09375 C 8.15625 -15.03125 8.5625 -15 9 -15 C 9.34375 -15 9.644531 -15.03125 9.90625 -15.09375 C 10.175781 -15.15625 10.414062 -15.1875 10.625 -15.1875 C 10.78125 -15.1875 10.910156 -15.15625 11.015625 -15.09375 C 11.128906 -15.03125 11.226562 -14.910156 11.3125 -14.734375 C 11.769531 -13.734375 12.132812 -12.867188 12.40625 -12.140625 C 12.675781 -11.421875 12.78125 -10.875 12.71875 -10.5 C 12.65625 -10.125 12.328125 -9.9375 11.734375 -9.9375 C 11.390625 -9.9375 11.066406 -10.109375 10.765625 -10.453125 C 10.460938 -10.804688 10.15625 -11.21875 9.84375 -11.6875 C 9.539062 -12.15625 9.175781 -12.5625 8.75 -12.90625 C 8.332031 -13.257812 7.835938 -13.4375 7.265625 -13.4375 C 6.703125 -13.4375 6.269531 -13.285156 5.96875 -12.984375 C 5.664062 -12.691406 5.515625 -12.296875 5.515625 -11.796875 C 5.515625 -11.328125 5.707031 -10.9375 6.09375 -10.625 C 6.488281 -10.320312 6.984375 -10.046875 7.578125 -9.796875 C 8.179688 -9.546875 8.828125 -9.28125 9.515625 -9 C 10.210938 -8.71875 10.859375 -8.375 11.453125 -7.96875 C 12.054688 -7.570312 12.550781 -7.070312 12.9375 -6.46875 C 13.332031 -5.875 13.53125 -5.117188 13.53125 -4.203125 C 13.53125 -3.242188 13.226562 -2.4375 12.625 -1.78125 C 12.03125 -1.132812 11.265625 -0.644531 10.328125 -0.3125 C 9.398438 0.0195312 8.414062 0.1875 7.375 0.1875 C 6.613281 0.1875 5.96875 0.15625 5.4375 0.09375 C 4.914062 0.03125 4.273438 0 3.515625 0 C 3.015625 0 2.644531 0.03125 2.40625 0.09375 C 2.164062 0.15625 1.832031 0.1875 1.40625 0.1875 C 1.007812 0.1875 0.773438 0.0390625 0.703125 -0.25 C 0.628906 -0.539062 0.628906 -0.925781 0.703125 -1.40625 C 0.773438 -1.882812 0.8125 -2.40625 0.8125 -2.96875 Z M 0.8125 -2.96875 "/></g></g></g><g fill="#3b4a6b" fill-opacity="1"><g transform="translate(190.005728, 304.213749)"><g><path d="M 0.296875 -11.28125 C 0.296875 -11.582031 0.394531 -11.78125 0.59375 -11.875 C 0.800781 -11.976562 1.082031 -12.078125 1.4375 -12.171875 C 1.800781 -12.273438 2.222656 -12.476562 2.703125 -12.78125 C 3.335938 -13.175781 3.796875 -13.554688 4.078125 -13.921875 C 4.359375 -14.296875 4.578125 -14.597656 4.734375 -14.828125 C 4.898438 -15.066406 5.113281 -15.1875 5.375 -15.1875 C 5.726562 -15.1875 5.941406 -15.003906 6.015625 -14.640625 C 6.085938 -14.273438 6.125 -13.875 6.125 -13.4375 L 6.125 -12.328125 C 6.125 -12.109375 6.234375 -12 6.453125 -12 L 6.9375 -12 C 7.4375 -12 7.6875 -11.75 7.6875 -11.25 C 7.6875 -10.726562 7.4375 -10.46875 6.9375 -10.46875 L 6.453125 -10.46875 C 6.234375 -10.46875 6.125 -10.359375 6.125 -10.140625 L 6.125 -6.625 C 6.125 -5.34375 6.132812 -4.410156 6.15625 -3.828125 C 6.1875 -3.253906 6.34375 -2.828125 6.625 -2.546875 C 6.8125 -2.390625 6.960938 -2.289062 7.078125 -2.25 C 7.203125 -2.207031 7.289062 -2.15625 7.34375 -2.09375 C 7.40625 -2.039062 7.4375 -1.90625 7.4375 -1.6875 C 7.4375 -1.300781 7.222656 -0.890625 6.796875 -0.453125 C 6.367188 -0.0234375 5.613281 0.1875 4.53125 0.1875 C 3.269531 0.1875 2.414062 -0.265625 1.96875 -1.171875 C 1.519531 -2.085938 1.296875 -3.273438 1.296875 -4.734375 L 1.3125 -9.09375 C 1.3125 -9.632812 1.226562 -10.007812 1.0625 -10.21875 C 0.894531 -10.425781 0.722656 -10.585938 0.546875 -10.703125 C 0.378906 -10.828125 0.296875 -11.019531 0.296875 -11.28125 Z M 0.296875 -11.28125 "/></g></g></g><g fill="#3b4a6b" fill-opacity="1"><g transform="translate(197.835718, 304.213749)"><g><path d="M 7.109375 0.1875 C 5.109375 0.1875 3.519531 -0.359375 2.34375 -1.453125 C 1.175781 -2.546875 0.59375 -4.0625 0.59375 -6 C 0.59375 -7.957031 1.175781 -9.476562 2.34375 -10.5625 C 3.519531 -11.644531 5.109375 -12.1875 7.109375 -12.1875 C 9.109375 -12.1875 10.691406 -11.644531 11.859375 -10.5625 C 13.035156 -9.476562 13.625 -7.957031 13.625 -6 C 13.625 -4.0625 13.035156 -2.546875 11.859375 -1.453125 C 10.691406 -0.359375 9.109375 0.1875 7.109375 0.1875 Z M 5.546875 -6 C 5.546875 -5.175781 5.585938 -4.421875 5.671875 -3.734375 C 5.765625 -3.046875 5.925781 -2.5 6.15625 -2.09375 C 6.394531 -1.695312 6.710938 -1.5 7.109375 -1.5 C 7.523438 -1.5 7.847656 -1.695312 8.078125 -2.09375 C 8.316406 -2.5 8.472656 -3.046875 8.546875 -3.734375 C 8.628906 -4.421875 8.671875 -5.175781 8.671875 -6 C 8.671875 -6.84375 8.628906 -7.601562 8.546875 -8.28125 C 8.472656 -8.957031 8.316406 -9.492188 8.078125 -9.890625 C 7.847656 -10.296875 7.523438 -10.5 7.109375 -10.5 C 6.710938 -10.5 6.394531 -10.296875 6.15625 -9.890625 C 5.925781 -9.492188 5.765625 -8.957031 5.671875 -8.28125 C 5.585938 -7.601562 5.546875 -6.84375 5.546875 -6 Z M 5.546875 -6 "/></g></g></g><g fill="#3b4a6b" fill-opacity="1"><g transform="translate(212.055699, 304.213749)"><g><path d="M 0.296875 -0.5625 C 0.296875 -0.789062 0.34375 -0.957031 0.4375 -1.0625 C 0.539062 -1.175781 0.660156 -1.316406 0.796875 -1.484375 C 0.941406 -1.648438 1.0625 -1.910156 1.15625 -2.265625 C 1.257812 -2.628906 1.3125 -3.164062 1.3125 -3.875 C 1.3125 -4.789062 1.316406 -5.453125 1.328125 -5.859375 C 1.335938 -6.273438 1.34375 -6.578125 1.34375 -6.765625 C 1.34375 -6.953125 1.34375 -7.164062 1.34375 -7.40625 C 1.34375 -7.945312 1.257812 -8.320312 1.09375 -8.53125 C 0.925781 -8.738281 0.753906 -8.898438 0.578125 -9.015625 C 0.410156 -9.140625 0.328125 -9.332031 0.328125 -9.59375 C 0.328125 -9.894531 0.425781 -10.097656 0.625 -10.203125 C 0.832031 -10.316406 1.117188 -10.414062 1.484375 -10.5 C 1.859375 -10.582031 2.300781 -10.710938 2.8125 -10.890625 C 3.457031 -11.128906 3.898438 -11.34375 4.140625 -11.53125 C 4.378906 -11.71875 4.554688 -11.875 4.671875 -12 C 4.796875 -12.125 4.988281 -12.1875 5.25 -12.1875 C 5.613281 -12.1875 5.851562 -12.023438 5.96875 -11.703125 C 6.09375 -11.378906 6.15625 -11 6.15625 -10.5625 L 6.15625 -10.4375 C 6.15625 -9.9375 6.160156 -9.691406 6.171875 -9.703125 C 6.191406 -9.710938 6.332031 -9.9375 6.59375 -10.375 C 6.9375 -10.957031 7.410156 -11.40625 8.015625 -11.71875 C 8.628906 -12.03125 9.21875 -12.1875 9.78125 -12.1875 C 10.882812 -12.1875 11.59375 -11.945312 11.90625 -11.46875 C 12.226562 -11 12.238281 -10.316406 11.9375 -9.421875 C 11.695312 -8.703125 11.484375 -8.207031 11.296875 -7.9375 C 11.109375 -7.664062 10.921875 -7.53125 10.734375 -7.53125 C 10.535156 -7.53125 10.316406 -7.648438 10.078125 -7.890625 C 9.835938 -8.128906 9.570312 -8.363281 9.28125 -8.59375 C 8.988281 -8.820312 8.632812 -8.9375 8.21875 -8.9375 C 7.976562 -8.9375 7.691406 -8.851562 7.359375 -8.6875 C 7.035156 -8.53125 6.753906 -8.242188 6.515625 -7.828125 C 6.273438 -7.410156 6.15625 -6.820312 6.15625 -6.0625 L 6.15625 -3.875 C 6.15625 -3.164062 6.203125 -2.628906 6.296875 -2.265625 C 6.398438 -1.910156 6.519531 -1.648438 6.65625 -1.484375 C 6.800781 -1.316406 6.921875 -1.175781 7.015625 -1.0625 C 7.117188 -0.957031 7.171875 -0.789062 7.171875 -0.5625 C 7.171875 -0.269531 7.054688 -0.0703125 6.828125 0.03125 C 6.597656 0.132812 6.3125 0.1875 5.96875 0.1875 C 5.59375 0.1875 5.195312 0.15625 4.78125 0.09375 C 4.375 0.03125 4.019531 0 3.71875 0 C 3.414062 0 3.0625 0.03125 2.65625 0.09375 C 2.25 0.15625 1.863281 0.1875 1.5 0.1875 C 1.15625 0.1875 0.867188 0.132812 0.640625 0.03125 C 0.410156 -0.0703125 0.296875 -0.269531 0.296875 -0.5625 Z M 0.296875 -0.5625 "/></g></g></g><g fill="#3b4a6b" fill-opacity="1"><g transform="translate(224.655689, 304.213749)"><g><path d="M 7.234375 0.1875 C 6.171875 0.1875 5.128906 -0.0195312 4.109375 -0.4375 C 3.085938 -0.863281 2.242188 -1.523438 1.578125 -2.421875 C 0.921875 -3.328125 0.59375 -4.507812 0.59375 -5.96875 C 0.59375 -7.207031 0.863281 -8.289062 1.40625 -9.21875 C 1.945312 -10.15625 2.695312 -10.882812 3.65625 -11.40625 C 4.613281 -11.925781 5.722656 -12.1875 6.984375 -12.1875 C 8.222656 -12.1875 9.234375 -12.035156 10.015625 -11.734375 C 10.796875 -11.429688 11.398438 -11.046875 11.828125 -10.578125 C 12.265625 -10.109375 12.5625 -9.628906 12.71875 -9.140625 C 12.875 -8.648438 12.953125 -8.222656 12.953125 -7.859375 C 12.953125 -6.859375 12.640625 -6.039062 12.015625 -5.40625 C 11.398438 -4.78125 10.613281 -4.320312 9.65625 -4.03125 C 8.695312 -3.738281 7.71875 -3.59375 6.71875 -3.59375 C 6.4375 -3.59375 6.226562 -3.492188 6.09375 -3.296875 C 5.96875 -3.097656 5.929688 -2.867188 5.984375 -2.609375 C 6.035156 -2.347656 6.195312 -2.117188 6.46875 -1.921875 C 6.738281 -1.722656 7.125 -1.625 7.625 -1.625 C 8.34375 -1.625 8.910156 -1.753906 9.328125 -2.015625 C 9.742188 -2.273438 10.078125 -2.570312 10.328125 -2.90625 C 10.578125 -3.25 10.816406 -3.550781 11.046875 -3.8125 C 11.285156 -4.070312 11.59375 -4.203125 11.96875 -4.203125 C 12.3125 -4.203125 12.566406 -4.09375 12.734375 -3.875 C 12.898438 -3.664062 12.984375 -3.4375 12.984375 -3.1875 C 12.984375 -2.5 12.71875 -1.90625 12.1875 -1.40625 C 11.664062 -0.90625 10.960938 -0.515625 10.078125 -0.234375 C 9.203125 0.046875 8.253906 0.1875 7.234375 0.1875 Z M 6.984375 -10.65625 C 6.566406 -10.65625 6.234375 -10.40625 5.984375 -9.90625 C 5.734375 -9.40625 5.609375 -8.734375 5.609375 -7.890625 C 5.609375 -7.046875 5.734375 -6.375 5.984375 -5.875 C 6.234375 -5.375 6.566406 -5.125 6.984375 -5.125 C 7.410156 -5.125 7.75 -5.375 8 -5.875 C 8.25 -6.375 8.375 -7.046875 8.375 -7.890625 C 8.375 -8.734375 8.25 -9.40625 8 -9.90625 C 7.75 -10.40625 7.410156 -10.65625 6.984375 -10.65625 Z M 6.984375 -10.65625 "/></g></g></g></svg>